<svg height="512pt" viewBox="-52 0 512 512" width="512pt" xmlns="http://www.w3.org/2000/svg"><path d="m377.144531 204.308594c19.066407-13.960938 31.472657-36.503906 31.472657-61.890625 0-38.804688-28.984376-70.96875-66.441407-75.980469-5.007812-37.457031-37.171875-66.4375-75.976562-66.4375h-.390625c-25.042969 0-47.46875 12-61.5 30.824219-14.03125-18.824219-36.460938-30.824219-61.503906-30.824219h-.386719c-38.804688 0-70.96875 28.980469-75.980469 66.4375-37.457031 5.011719-66.4375 37.175781-66.4375 75.980469 0 25.386719 12.40625 47.933593 31.46875 61.890625-19.0625 13.957031-31.46875 36.503906-31.46875 61.890625 0 38.804687 28.980469 70.964843 66.4375 75.976562 5.011719 37.457031 37.175781 66.441407 75.980469 66.441407h.386719c17.519531 0 33.753906-5.878907 46.734374-15.851563v6.003906c0 62.433594 50.792969 113.230469 113.230469 113.230469 8.15625 0 14.769531-6.613281 14.769531-14.769531s-6.613281-14.769531-14.769531-14.769531c-46.148437 0-83.691406-37.542969-83.691406-83.691407v-6.003906c12.980469 9.972656 29.214844 15.851563 46.734375 15.851563h.386719c38.804687 0 70.96875-28.984376 75.980469-66.441407 37.453124-5.011719 66.4375-37.171875 66.4375-75.976562 0-25.386719-12.40625-47.933594-31.472657-61.890625zm-45.1875 109.011718h-3.871093c-8.15625 0-14.765626 6.609376-14.765626 14.765626v3.871093c0 25.980469-21.140624 47.121094-47.121093 47.121094h-.386719c-24.0625 0-44.191406-18.007813-46.824219-41.882813-.027343-.226562-.070312-.441406-.105469-.664062-.058593-.386719-.132812-.769531-.222656-1.148438.261719-1.101562.417969-2.242187.417969-3.425781v-48.878906c0-8.15625-6.613281-14.769531-14.769531-14.769531s-14.769532 6.613281-14.769532 14.769531v48.878906c0 1.183594.152344 2.324219.414063 3.425781-.082031.351563-.148437.707032-.207031 1.066407-.042969.246093-.089844.492187-.117188.746093-2.632812 23.875-22.765625 41.882813-46.824218 41.882813h-.386719c-25.984375 0-47.121094-21.140625-47.121094-47.121094v-3.871093c0-8.15625-6.613281-14.765626-14.769531-14.765626h-3.867188c-25.984375 0-47.121094-21.140624-47.121094-47.121093 0-25.984375 21.136719-47.121094 47.121094-47.121094h48.878906c8.15625 0 14.769532-6.613281 14.769532-14.769531s-6.613282-14.769532-14.769532-14.769532h-48.878906c-25.984375 0-47.121094-21.136718-47.121094-47.121093 0-25.980469 21.136719-47.117188 47.121094-47.117188h3.867188c8.15625 0 14.769531-6.613281 14.769531-14.769531v-3.871094c0-25.980468 21.140625-47.121094 47.121094-47.121094h.386719c24.0625 0 44.191406 18.007813 46.824218 41.882813.066406.621094.1875 1.21875.328125 1.808594-.265625 1.105469-.417969 2.25-.417969 3.429687v48.878906c0 8.15625 6.613282 14.769532 14.769532 14.769532s14.769531-6.613282 14.769531-14.769532v-48.878906c0-1.183594-.152344-2.328125-.417969-3.429687.140625-.59375.261719-1.191407.328125-1.808594 2.632813-23.878906 22.761719-41.882813 46.824219-41.882813h.386719c25.980469 0 47.121093 21.136719 47.121093 47.121094v3.867188c0 8.15625 6.609376 14.769531 14.765626 14.769531h3.871093c25.980469 0 47.121094 21.140625 47.121094 47.121094s-21.140625 47.121093-47.121094 47.121093h-48.878906c-8.15625 0-14.769531 6.609376-14.769531 14.769532 0 8.15625 6.613281 14.765625 14.769531 14.765625h48.878906c25.980469 0 47.121094 21.140625 47.121094 47.121093 0 25.984376-21.140625 47.125-47.121094 47.125zm0 0" fill="#00632f"/></svg>